Normalized EMG Linear Envelopes
nRows=43
nColumns=17

endheader
time	        VM	        VL	        RF	       GRA	        TA	   ADDLONG	   SEMIMEM	      BFLH	        GM	        GL	       TFL	   GLUTMAX	   GLUTMED	      PIRI	    OBTINT	        QF	
2.431	  0.042598	  0.126467	  0.253398	  0.993393	  0.451150	  0.350967	  0.158657	  0.140382	  0.293555	  0.206430	  0.472090	  0.019577	  0.106915	  0.111925	  2.432128	  0.215552	
2.4315	  0.041794	  0.124477	  0.252763	  0.994052	  0.456151	  0.351114	  0.160312	  0.141405	  0.294273	  0.207655	  0.470606	  0.019275	  0.107391	  0.111581	  2.423677	  0.215785	
2.432	  0.041022	  0.122515	  0.252095	  0.994598	  0.461189	  0.351268	  0.161974	  0.142420	  0.294982	  0.208869	  0.469097	  0.018983	  0.107864	  0.111253	  2.414939	  0.215991	
2.4325	  0.040283	  0.120581	  0.251394	  0.995034	  0.466263	  0.351432	  0.163642	  0.143428	  0.295682	  0.210071	  0.467564	  0.018700	  0.108332	  0.110940	  2.405913	  0.216169	
2.433	  0.039576	  0.118673	  0.250660	  0.995363	  0.471371	  0.351604	  0.165317	  0.144429	  0.296374	  0.211261	  0.466009	  0.018426	  0.108796	  0.110644	  2.396598	  0.216319	
2.4335	  0.038900	  0.116793	  0.249894	  0.995588	  0.476515	  0.351787	  0.166997	  0.145421	  0.297058	  0.212438	  0.464431	  0.018161	  0.109254	  0.110364	  2.386995	  0.216439	
2.434	  0.038255	  0.114939	  0.249097	  0.995712	  0.481692	  0.351981	  0.168681	  0.146403	  0.297734	  0.213601	  0.462833	  0.017904	  0.109706	  0.110101	  2.377101	  0.216529	
2.4345	  0.037640	  0.113111	  0.248268	  0.995737	  0.486902	  0.352186	  0.170369	  0.147377	  0.298402	  0.214750	  0.461216	  0.017657	  0.110153	  0.109855	  2.366918	  0.216587	
2.435	  0.037055	  0.111309	  0.247408	  0.995667	  0.492145	  0.352403	  0.172060	  0.148339	  0.299062	  0.215885	  0.459581	  0.017418	  0.110592	  0.109626	  2.356444	  0.216613	
2.4355	  0.036499	  0.109533	  0.246518	  0.995504	  0.497419	  0.352634	  0.173753	  0.149291	  0.299714	  0.217005	  0.457929	  0.017188	  0.111025	  0.109415	  2.345681	  0.216606	
2.436	  0.035972	  0.107782	  0.245600	  0.995249	  0.502722	  0.352877	  0.175447	  0.150230	  0.300357	  0.218109	  0.456261	  0.016966	  0.111450	  0.109222	  2.334627	  0.216564	
2.4365	  0.035473	  0.106057	  0.244656	  0.994904	  0.508055	  0.353135	  0.177141	  0.151157	  0.300992	  0.219198	  0.454580	  0.016752	  0.111867	  0.109047	  2.323283	  0.216486	
2.437	  0.035002	  0.104357	  0.243686	  0.994472	  0.513415	  0.353407	  0.178835	  0.152070	  0.301618	  0.220272	  0.452887	  0.016546	  0.112275	  0.108890	  2.311649	  0.216372	
2.4375	  0.034558	  0.102681	  0.242693	  0.993953	  0.518802	  0.353694	  0.180526	  0.152969	  0.302235	  0.221329	  0.451182	  0.016348	  0.112674	  0.108752	  2.299726	  0.216221	
2.438	  0.034141	  0.101031	  0.241678	  0.993350	  0.524214	  0.353996	  0.182215	  0.153852	  0.302843	  0.222371	  0.449466	  0.016158	  0.113064	  0.108632	  2.287514	  0.216031	
2.4385	  0.033750	  0.099405	  0.240645	  0.992662	  0.529649	  0.354313	  0.183900	  0.154719	  0.303440	  0.223396	  0.447742	  0.015975	  0.113443	  0.108532	  2.275014	  0.215801	
2.439	  0.033385	  0.097804	  0.239594	  0.991891	  0.535106	  0.354646	  0.185580	  0.155569	  0.304027	  0.224404	  0.446010	  0.015799	  0.113813	  0.108451	  2.262226	  0.215532	
2.4395	  0.033045	  0.096227	  0.238528	  0.991038	  0.540583	  0.354994	  0.187253	  0.156400	  0.304604	  0.225396	  0.444271	  0.015632	  0.114171	  0.108389	  2.249151	  0.215222	
2.44	  0.032730	  0.094674	  0.237448	  0.990104	  0.546078	  0.355357	  0.188919	  0.157212	  0.305169	  0.226370	  0.442526	  0.015471	  0.114519	  0.108347	  2.235791	  0.214870	
2.4405	  0.032439	  0.093145	  0.236358	  0.989089	  0.551590	  0.355736	  0.190576	  0.158004	  0.305721	  0.227328	  0.440777	  0.015317	  0.114856	  0.108324	  2.222148	  0.214477	
2.441	  0.032171	  0.091640	  0.235258	  0.987995	  0.557116	  0.356131	  0.192224	  0.158775	  0.306261	  0.228269	  0.439026	  0.015170	  0.115182	  0.108322	  2.208223	  0.214043	
2.4415	  0.031927	  0.090158	  0.234151	  0.986822	  0.562654	  0.356541	  0.193860	  0.159523	  0.306788	  0.229193	  0.437272	  0.015030	  0.115496	  0.108339	  2.194019	  0.213566	
2.442	  0.031706	  0.088700	  0.233039	  0.985572	  0.568202	  0.356966	  0.195483	  0.160248	  0.307299	  0.230100	  0.435519	  0.014897	  0.115799	  0.108377	  2.179539	  0.213048	
2.4425	  0.031507	  0.087265	  0.231925	  0.984245	  0.573759	  0.357407	  0.197094	  0.160948	  0.307796	  0.230990	  0.433767	  0.014770	  0.116091	  0.108435	  2.164787	  0.212487	
2.443	  0.031330	  0.085854	  0.230809	  0.982842	  0.579321	  0.357862	  0.198689	  0.161624	  0.308275	  0.231862	  0.432017	  0.014650	  0.116372	  0.108513	  2.149767	  0.211884	
2.4435	  0.031174	  0.084467	  0.229696	  0.981365	  0.584885	  0.358332	  0.200267	  0.162273	  0.308738	  0.232716	  0.430271	  0.014536	  0.116641	  0.108612	  2.134482	  0.211239	
2.444	  0.031039	  0.083103	  0.228586	  0.979813	  0.590451	  0.358816	  0.201828	  0.162896	  0.309182	  0.233554	  0.428529	  0.014428	  0.116900	  0.108731	  2.118937	  0.210551	
2.4445	  0.030924	  0.081764	  0.227481	  0.978188	  0.596013	  0.359315	  0.203369	  0.163490	  0.309606	  0.234373	  0.426793	  0.014326	  0.117148	  0.108872	  2.103135	  0.209820	
2.445	  0.030830	  0.080448	  0.226385	  0.976491	  0.601571	  0.359827	  0.204889	  0.164056	  0.310010	  0.235174	  0.425064	  0.014230	  0.117385	  0.109033	  2.087081	  0.209048	
2.4455	  0.030754	  0.079157	  0.225298	  0.974724	  0.607120	  0.360352	  0.206387	  0.164593	  0.310393	  0.235957	  0.423343	  0.014140	  0.117611	  0.109215	  2.070778	  0.208232	
2.446	  0.030698	  0.077890	  0.224223	  0.972888	  0.612657	  0.360891	  0.207861	  0.165099	  0.310754	  0.236721	  0.421630	  0.014056	  0.117828	  0.109418	  2.054232	  0.207374	
2.4465	  0.030659	  0.076648	  0.223162	  0.970986	  0.618178	  0.361444	  0.209309	  0.165574	  0.311091	  0.237467	  0.419927	  0.013978	  0.118033	  0.109643	  2.037447	  0.206474	
2.447	  0.030639	  0.075431	  0.222116	  0.969019	  0.623681	  0.362008	  0.210729	  0.166017	  0.311405	  0.238194	  0.418235	  0.013905	  0.118229	  0.109888	  2.020431	  0.205533	
2.4475	  0.030636	  0.074238	  0.221088	  0.966989	  0.629162	  0.362585	  0.212120	  0.166428	  0.311694	  0.238902	  0.416554	  0.013837	  0.118415	  0.110155	  2.003190	  0.204550	
2.448	  0.030650	  0.073070	  0.220080	  0.964896	  0.634616	  0.363173	  0.213479	  0.166807	  0.311957	  0.239593	  0.414884	  0.013775	  0.118591	  0.110443	  1.985732	  0.203527	
2.4485	  0.030681	  0.071927	  0.219093	  0.962741	  0.640040	  0.363772	  0.214806	  0.167151	  0.312193	  0.240265	  0.413228	  0.013719	  0.118756	  0.110752	  1.968065	  0.202465	
2.449	  0.030727	  0.070808	  0.218128	  0.960527	  0.645430	  0.364382	  0.216097	  0.167462	  0.312403	  0.240919	  0.411585	  0.013667	  0.118912	  0.111084	  1.950197	  0.201365	
2.4495	  0.030790	  0.069715	  0.217188	  0.958252	  0.650783	  0.365001	  0.217352	  0.167737	  0.312584	  0.241557	  0.409955	  0.013621	  0.119058	  0.111437	  1.932139	  0.200228	
2.45	  0.030867	  0.068647	  0.216274	  0.955917	  0.656094	  0.365630	  0.218569	  0.167977	  0.312737	  0.242177	  0.408340	  0.013580	  0.119194	  0.111812	  1.913899	  0.199055	
2.4505	  0.030959	  0.067604	  0.215388	  0.953524	  0.661361	  0.366267	  0.219746	  0.168180	  0.312862	  0.242781	  0.406740	  0.013544	  0.119320	  0.112209	  1.895487	  0.197847	
2.451	  0.031065	  0.066586	  0.214531	  0.951071	  0.666579	  0.366912	  0.220881	  0.168347	  0.312957	  0.243368	  0.405154	  0.013513	  0.119436	  0.112628	  1.876914	  0.196607	
2.4515	  0.031185	  0.065593	  0.213704	  0.948560	  0.671746	  0.367564	  0.221972	  0.168476	  0.313022	  0.243938	  0.403583	  0.013487	  0.119543	  0.113070	  1.858189	  0.195334	
2.452	  0.031319	  0.064626	  0.212909	  0.945989	  0.676857	  0.368223	  0.223018	  0.168567	  0.313058	  0.244492	  0.402027	  0.013465	  0.119639	  0.113534	  1.839322	  0.194031	
